<?xml version="1.0" encoding="utf-8"?>
<!-- Generator: Adobe Illustrator 25.0.0, SVG Export Plug-In . SVG Version: 6.00 Build 0)  -->
<svg version="1.1" id="Layer_1" xmlns="http://www.w3.org/2000/svg" xmlns:xlink="http://www.w3.org/1999/xlink" x="0px" y="0px"
	 viewBox="0 0 108.3 122.9" style="enable-background:new 0 0 108.3 122.9;" xml:space="preserve">
<style type="text/css">
	.st0{fill:#D60D21;}
</style>
<g>
	<path class="st0" d="M77.4,49.1h-5.9v56.1h5.9V49.1L77.4,49.1L77.4,49.1z M6.1,9.1h32.2V6.2c0-0.1,0-0.2,0-0.3
		c0.1-2.8,2.2-5.2,5-5.8C44,0,44.6,0,45.4,0h18.5c0.2,0,0.5,0,0.7,0c1.6,0.1,3,0.8,4.1,1.8c1,1,1.7,2.4,1.8,4c0,0.2,0,0.4,0,0.6v2.7
		H103c0.4,0,0.8,0,1.2,0.1c2.2,0.4,3.9,2.1,4.1,4.4c0,0.2,0,0.5,0,0.7v10.5c0,1.5-1.2,2.7-2.7,2.7H2.7c-1.5,0-2.7-1.2-2.7-2.7v-0.1
		v-9.9C0,10.6,2,9.1,6.1,9.1L6.1,9.1z M58.1,49.1h-6v56.1h6V49.1L58.1,49.1L58.1,49.1z M38.7,49.1h-5.9v56.1h6L38.7,49.1L38.7,49.1
		L38.7,49.1z M10.7,31.6h87.1c0.4,0,0.7,0,1,0.1c1.2,0.2,2.4,0.8,3.3,1.7c1,1,1.7,2.3,1.7,3.8c0,0.3,0,0.6-0.1,1l-7.3,78.7
		c-0.1,1-0.3,1.9-0.8,2.9c-1,1.9-2.9,3.2-5.2,3.2h-72c-0.5,0-1,0-1.6-0.1c-0.2,0-0.4-0.1-0.6-0.1c-0.3-0.1-0.6-0.2-0.9-0.3
		c-0.3-0.1-0.5-0.3-0.8-0.4c-1.5-1-2.5-2.8-2.7-4.7L4.5,37.9c0-0.2,0-0.5,0-0.8c0.1-1.5,0.7-2.8,1.7-3.8c0.9-0.9,2.1-1.5,3.3-1.7
		C9.9,31.6,10.3,31.6,10.7,31.6L10.7,31.6z M97.8,36.9H10.6c-0.6,0-0.8,0.1-0.8,0.7l7.3,79.1l0,0v0c0,0.4,0.2,0.7,0.5,0.8l0,0l0.1,0
		l0.1,0h0.1h72.7c0.6,0,0.7-0.8,0.7-1.3l7.3-78.7C98.5,37,98.2,36.9,97.8,36.9L97.8,36.9z"/>
</g>
</svg>
