<?xml version="1.0" encoding="utf-8"?>
<!-- Generator: Adobe Illustrator 25.0.0, SVG Export Plug-In . SVG Version: 6.00 Build 0)  -->
<svg version="1.1" id="Capa_1" xmlns="http://www.w3.org/2000/svg" xmlns:xlink="http://www.w3.org/1999/xlink" x="0px" y="0px"
	 viewBox="0 0 494.9 494.9" style="enable-background:new 0 0 494.9 494.9;" xml:space="preserve">
<style type="text/css">
	.st0{fill:#0DA00D;}
</style>
<g>
	<g>
		<path class="st0" d="M389.8,182.9c-6.7,0-12.2,5.5-12.2,12.2v223c0,23.6-19.2,42.7-42.7,42.7H67.2c-23.6,0-42.7-19.2-42.7-42.7
			V150.3c0-23.6,19.2-42.7,42.7-42.7h267.7c6.7,0,12.2-5.5,12.2-12.2s-5.5-12.2-12.2-12.2H67.2c-37,0-67.2,30.1-67.2,67.2V418
			c0,37,30.1,67.2,67.2,67.2h267.7c37,0,67.2-30.1,67.2-67.2v-223C402.1,188.3,396.6,182.9,389.8,182.9z"/>
		<path class="st0" d="M483.9,20.8c-14.7-14.7-38.7-14.7-53.4,0L221.4,229.9c-0.3,0.3-3.4,3.6-4.3,5.4l-29,65.1
			c-2.1,4.6-1.1,10,2.5,13.6c2.3,2.3,5.5,3.6,8.6,3.6c1.7,0,3.4-0.3,5-1.1l65.1-29c1.8-0.8,5.1-4,5.4-4.2L483.9,74.2
			c7.1-7.1,11.1-16.6,11.1-26.7C494.9,37.4,491,27.9,483.9,20.8z M466.6,56.9L257.5,266c0,0-0.1,0.1-0.1,0.1l-34,15.1l15.1-34
			c0,0,0.1-0.1,0.1-0.1L447.8,38.1c5-5,13.8-5,18.8,0c2.5,2.5,3.9,5.9,3.9,9.4C470.5,51,469.1,54.4,466.6,56.9z"/>
	</g>
</g>
</svg>
